<?xml version="1.0" encoding="UTF-8"?>
<svg id="Layer_1" xmlns="http://www.w3.org/2000/svg" version="1.1" viewBox="0 0 367.25 206.32">
  <!-- Generator: Adobe Illustrator 29.7.1, SVG Export Plug-In . SVG Version: 2.1.1 Build 8)  -->
  <defs>
    <style>
      .st0 {
        fill: #babedb;
      }

      .st1 {
        fill: #4b50a2;
      }
    </style>
  </defs>
  <g>
    <path class="st1" d="M175.23,117.07c1.17.88,2.63,1.8,4.38,2.76,1.75.96,3.65,2,5.7,3.11,2.04,1.11,3.95,2.29,5.7,3.55,1.75,1.26,3.21,2.66,4.38,4.21s1.75,3.23,1.75,5.04c0,1.52-.37,3.01-1.1,4.47-.73,1.46-1.78,2.76-3.16,3.9-1.37,1.14-3.08,2.06-5.13,2.76-2.04.7-4.38,1.05-7.01,1.05-2.22,0-4.47-.22-6.75-.66-2.28-.44-4.21-.98-5.79-1.62.35-1.05.73-2.13,1.14-3.24s.76-2.19,1.05-3.24c1.34.47,2.95.91,4.82,1.32,1.87.41,3.71.61,5.52.61,2.98,0,5.3-.5,6.97-1.49,1.67-.99,2.5-2.28,2.5-3.86,0-.93-.58-1.87-1.75-2.81-1.17-.93-2.63-1.9-4.38-2.89-1.75-.99-3.67-2.05-5.74-3.16-2.08-1.11-3.99-2.29-5.74-3.55-1.75-1.26-3.21-2.62-4.38-4.08-1.17-1.46-1.75-3.04-1.75-4.74,0-1.4.35-2.83,1.05-4.3.7-1.46,1.74-2.78,3.11-3.95,1.37-1.17,3.08-2.12,5.13-2.85,2.05-.73,4.41-1.1,7.1-1.1,2.34,0,4.65.23,6.93.7,2.28.47,4.18.99,5.7,1.58-.35,1.05-.73,2.13-1.14,3.24s-.76,2.19-1.05,3.24c-1.29-.47-2.88-.91-4.78-1.32-1.9-.41-3.78-.61-5.65-.61-3.04,0-5.36.5-6.97,1.49-1.61.99-2.41,2.22-2.41,3.68,0,.93.58,1.84,1.75,2.72Z"/>
    <path class="st1" d="M212.06,110.23h-7.01v-7.89h7.01v7.89ZM212.06,147.93h-7.01v-33.32h7.01v33.32Z"/>
    <path class="st1" d="M236.39,121.71c-.73-.64-1.53-.96-2.41-.96-.82,0-1.61.19-2.37.57s-1.49.88-2.19,1.49c-.7.61-1.33,1.31-1.88,2.1-.55.79-1.04,1.56-1.45,2.32v20.69h-7.01v-34.19h7.01v3.51c1.34-1.05,2.73-1.89,4.16-2.5,1.43-.61,2.91-.92,4.43-.92,1.34,0,2.67.31,3.99.92,1.32.61,2.56,1.62,3.73,3.02,1.34-1.34,2.73-2.35,4.17-3.02,1.43-.67,3.08-1.01,4.95-1.01,1.29,0,2.57.21,3.86.61,1.29.41,2.41,1.07,3.38,1.97.96.91,1.75,2.09,2.37,3.55.61,1.46.92,3.21.92,5.26v22.8h-7.01v-22.8c0-1.64-.37-2.78-1.1-3.42-.73-.64-1.53-.96-2.41-.96-1.4,0-2.7.51-3.9,1.53s-2.24,2.18-3.11,3.46v22.18h-7.01v-22.8c0-1.64-.37-2.78-1.1-3.42Z"/>
    <path class="st1" d="M270.41,145.69c-1.49-1.49-2.24-3.38-2.24-5.66v-4.21c0-1.46.35-2.76,1.05-3.9s1.65-2.1,2.85-2.89,2.62-1.4,4.25-1.84,3.39-.66,5.26-.66c1.29,0,2.6.12,3.95.35,1.34.23,2.86.64,4.56,1.23,0-2.86-.79-4.85-2.37-5.96-1.58-1.11-3.51-1.67-5.79-1.67-1.81,0-3.73.26-5.74.79-2.02.53-3.87,1.17-5.57,1.93l-2.72-5.96c2.22-1.05,4.6-1.9,7.15-2.54,2.54-.64,5.04-.96,7.5-.96,1.99,0,3.86.25,5.61.75,1.75.5,3.29,1.3,4.6,2.41,1.32,1.11,2.37,2.57,3.16,4.38.79,1.81,1.18,4.03,1.18,6.66v19.99h-21.04c-2.28,0-4.17-.75-5.66-2.24ZM290.09,134.87c-.99-.58-2.24-1.01-3.73-1.27-1.49-.26-3-.39-4.52-.39-1.75,0-3.3.2-4.65.61s-2.02,1.08-2.02,2.02v4.21c0,.58.29.88.88.88h14.03v-6.05Z"/>
    <path class="st1" d="M341.82,147.93v-14.91h-17.54v14.91h-7.01v-30.25c0-2.57.42-4.82,1.27-6.75.85-1.93,1.99-3.52,3.42-4.78,1.43-1.26,3.1-2.21,5-2.85,1.9-.64,3.87-.96,5.92-.96s4.12.32,6.05.96c1.93.64,3.62,1.61,5.08,2.89,1.46,1.29,2.63,2.89,3.51,4.82.88,1.93,1.31,4.15,1.31,6.66v30.25h-7.01ZM341.82,126.01v-8.33c0-1.34-.26-2.54-.79-3.59-.53-1.05-1.21-1.93-2.06-2.63s-1.81-1.23-2.89-1.58-2.18-.53-3.29-.53c-1.05,0-2.09.18-3.11.53-1.02.35-1.93.86-2.72,1.53s-1.43,1.53-1.93,2.59c-.5,1.05-.75,2.28-.75,3.68v8.33h17.54Z"/>
    <path class="st1" d="M363.74,110.23h-7.01v-7.89h7.01v7.89ZM363.74,147.93h-7.01v-33.32h7.01v33.32Z"/>
  </g>
  <g>
    <path class="st1" d="M25.95,189.59c0,.52-.1,1.01-.31,1.47s-.49.87-.84,1.23c-.35.37-.76.65-1.23.86-.47.21-.98.31-1.53.31h-8.62c-1.02,0-1.98-.2-2.88-.59-.9-.39-1.69-.93-2.37-1.61-.68-.68-1.21-1.47-1.61-2.37-.39-.9-.59-1.86-.59-2.88v-4.7h3.13v4.7c0,.6.11,1.16.33,1.68s.53.98.92,1.37c.39.39.85.7,1.37.92.52.22,1.08.33,1.68.33h8.62c.21,0,.39-.07.55-.21s.23-.32.23-.53c0-.24-.13-.48-.39-.74l-6.23-6.31,2.19-2.19,2.9,2.94h5.05v3.13h-1.88l.2.2c.86.86,1.29,1.85,1.29,2.98ZM16.51,197.26l-2.19,1.97-1.96-1.73,2.23-2.01,1.92,1.76ZM21.21,197.26l-2.19,1.97-1.96-1.73,2.23-2.01,1.92,1.76Z"/>
    <path class="st1" d="M25.5,183.61c.22-.22.5-.33.84-.33h10.58v-2.35c0-.97-.24-1.73-.72-2.29s-1.09-.98-1.82-1.25-1.53-.44-2.41-.51c-.88-.07-1.69-.1-2.45-.1l-.63-2.62c1.54-1.46,3.08-2.95,4.6-4.45,1.53-1.5,3.06-2.99,4.6-4.45l2.27,2.27c-1.18,1.15-2.36,2.27-3.55,3.37-1.19,1.1-2.37,2.22-3.55,3.37,1.02.13,1.95.33,2.78.59.84.26,1.55.65,2.14,1.16.59.51,1.04,1.16,1.37,1.96.33.8.49,1.78.49,2.96v5.49h-13.71c-.34,0-.62-.11-.84-.33-.22-.22-.33-.5-.33-.84v-.78c0-.34.11-.62.33-.84Z"/>
    <path class="st1" d="M51.76,176.62c-.56-.26-1.25-.39-2.06-.39-.65,0-1.33.08-2.04.25-.71.17-1.36.4-1.96.69l-.63-3.02c.71-.34,1.48-.6,2.31-.78.84-.18,1.65-.27,2.43-.27s1.53.09,2.23.27c.71.18,1.33.46,1.88.84.55.38.99.87,1.31,1.47.33.6.49,1.31.49,2.12v5.49h2.74v3.13h-14.5v-3.13h8.62v-5.49c0-.52-.28-.91-.84-1.17ZM50.4,167.25l-2.19,2.19-1.96-1.92,2.23-2.23,1.92,1.96Z"/>
    <path class="st1" d="M57.63,183.61c.22-.22.5-.33.84-.33h3.13v-18.03h3.13v21.16h-6.27c-.34,0-.62-.11-.84-.33-.22-.22-.33-.5-.33-.84v-.78c0-.34.11-.62.33-.84Z"/>
    <path class="st1" d="M72.58,186.41h-3.13v-21.16h3.13v21.16Z"/>
    <path class="st1" d="M84.22,178.52c.44-.85,1.08-1.62,1.92-2.31.84-.69,1.86-1.25,3.08-1.68s2.59-.65,4.13-.65h3.13v9.4h2.74v3.13h-10.19c-.99,0-1.83-.14-2.53-.43-.69-.29-1.25-.68-1.69-1.18s-.75-1.07-.96-1.72c-.21-.65-.31-1.33-.31-2.04,0-.84.22-1.68.67-2.53ZM87.24,182.55c.37.48.97.72,1.8.72h4.31v-6.27c-1.07,0-2.02.11-2.84.33-.82.22-1.52.52-2.08.88-.56.37-.99.79-1.29,1.27s-.45,1-.45,1.55.18,1.03.55,1.51ZM91.94,168.82l-2.19,2.19-1.96-1.92,2.23-2.23,1.92,1.96ZM96.64,168.82l-2.19,2.19-1.96-1.92,2.23-2.23,1.92,1.96Z"/>
    <path class="st1" d="M98.38,183.61c.22-.22.5-.33.84-.33h4.7v-9.4h3.13v12.54h-7.84c-.34,0-.62-.11-.84-.33-.22-.22-.33-.5-.33-.84v-.78c0-.34.11-.62.33-.84ZM102.91,190.37l-2.19,2.19-1.96-1.92,2.23-2.23,1.92,1.96ZM107.61,190.37l-2.19,2.19-1.96-1.92,2.23-2.23,1.92,1.96Z"/>
    <path class="st1" d="M118.76,176.62c-.56-.26-1.25-.39-2.06-.39-.65,0-1.33.08-2.04.25-.71.17-1.36.4-1.96.69l-.63-3.02c.71-.34,1.48-.6,2.31-.78.84-.18,1.65-.27,2.43-.27s1.53.09,2.23.27c.71.18,1.33.46,1.88.84.55.38.99.87,1.31,1.47.33.6.49,1.31.49,2.12v8.62h-11.76v-3.13h8.62v-5.49c0-.52-.28-.91-.84-1.17Z"/>
    <path class="st1" d="M132.53,186.41c-.6,0-1.16-.11-1.68-.33s-.98-.53-1.37-.92-.7-.85-.92-1.37-.33-1.08-.33-1.69v-1.18c0-1.2.17-2.25.51-3.13.34-.89.8-1.62,1.39-2.19.59-.58,1.27-1.01,2.04-1.29.77-.29,1.6-.43,2.49-.43,1.2,0,2.33.19,3.39.57,1.06.38,1.97.93,2.72,1.67v7.17h2.35v3.13h-2.35v.39c0,1.1-.14,2.02-.43,2.78-.29.76-.69,1.37-1.19,1.82-.51.46-1.1.78-1.78.98s-1.41.29-2.19.29c-.99,0-2.03-.13-3.12-.39-1.08-.26-2.16-.59-3.23-.98.21-.65.38-1.15.51-1.49s.22-.59.27-.75l.12-.31c.44.18,1.1.4,1.96.65.86.25,1.74.37,2.63.37.42,0,.83-.05,1.23-.14.4-.09.76-.25,1.08-.47.31-.22.56-.52.74-.9.18-.38.27-.87.27-1.47v-.39h-5.09ZM137.63,177.75c-.94-.5-1.93-.74-2.98-.74-.91,0-1.69.31-2.33.94s-.96,1.62-.96,2.98v1.18c0,.31.12.59.35.82.24.24.51.35.82.35h5.09v-5.53Z"/>
    <path class="st1" d="M142.27,183.61c.22-.22.5-.33.84-.33h5.21l-2.27-3.92c-.31-.55-.47-1.16-.47-1.84,0-1.02.35-1.88,1.06-2.59.71-.71,1.57-1.06,2.59-1.06h7.37c1.02,0,1.88.35,2.59,1.06.71.71,1.06,1.57,1.06,2.59,0,.73-.16,1.34-.47,1.84l-2.27,3.92h5.21v3.13h-19.59c-.34,0-.62-.11-.84-.33-.22-.22-.33-.5-.33-.84v-.78c0-.34.11-.62.33-.84ZM153.85,183.28l3.17-5.49c.05-.1.08-.2.08-.27,0-.34-.17-.51-.51-.51h-7.37c-.13,0-.26.04-.39.12-.13.08-.2.18-.2.31,0,.1.04.21.12.31l3.21,5.53h1.88Z"/>
    <path class="st1" d="M161.86,183.61c.22-.22.5-.33.84-.33h3.92v-9.4h3.14v9.4h5.09v-9.4h3.13v9.4h5.09v-9.4h3.13v9.4h3.92v3.13h-27.43c-.34,0-.62-.11-.84-.33-.22-.22-.33-.5-.33-.84v-.78c0-.34.11-.62.33-.84Z"/>
    <path class="st1" d="M189.29,183.61c.22-.22.5-.33.84-.33h3.13v-18.03h3.13v21.16h-6.27c-.34,0-.62-.11-.84-.33-.22-.22-.33-.5-.33-.84v-.78c0-.34.11-.62.33-.84Z"/>
    <path class="st1" d="M204.24,186.41h-3.13v-21.16h3.13v21.16Z"/>
    <path class="st1" d="M215.21,179.95c0-1.07.18-1.99.53-2.76.35-.77.83-1.4,1.43-1.88.6-.48,1.29-.84,2.08-1.08.78-.24,1.61-.35,2.47-.35,1.07,0,2.13.16,3.17.49,1.04.33,2,.79,2.86,1.39v10.66h-12.54v-6.47ZM221.25,168.82l-2.19,2.19-1.96-1.92,2.23-2.23,1.92,1.96ZM224.62,177.56c-.81-.37-1.78-.55-2.9-.55-.89,0-1.67.23-2.35.69-.68.46-1.02,1.21-1.02,2.25v3.33h6.27v-5.72ZM225.95,168.82l-2.19,2.19-1.96-1.92,2.23-2.23,1.92,1.96Z"/>
    <path class="st1" d="M234.49,191.13c-.99,1.03-2.35,1.55-4.07,1.55-.73,0-1.54-.1-2.43-.29-.89-.2-1.79-.48-2.7-.84l1.18-2.74c.6.26,1.19.44,1.76.53.58.09,1.11.14,1.61.14.91,0,1.65-.23,2.19-.69.55-.46.82-1.25.82-2.37v-12.54h3.13v12.54c0,2.12-.5,3.69-1.49,4.72Z"/>
    <path class="st1" d="M244.21,183.28h3.13v3.13h-6.27v-21.16h3.13v18.03Z"/>
    <path class="st1" d="M246.5,183.61c.22-.22.5-.33.84-.33h2.35v-1.25c0-1.07.17-1.99.51-2.76s.8-1.41,1.37-1.92c.58-.51,1.24-.89,2-1.14.76-.25,1.55-.37,2.39-.37s1.63.12,2.39.37c.76.25,1.42.63,2,1.14.58.51,1.03,1.15,1.37,1.92s.51,1.69.51,2.76v1.25h2.35v3.13h-3.02c-.47.97-1.21,1.7-2.21,2.19s-2.14.74-3.39.74-2.39-.25-3.41-.74c-1.02-.5-1.76-1.23-2.23-2.19h-2.98c-.34,0-.62-.11-.84-.33-.22-.22-.33-.5-.33-.84v-.78c0-.34.11-.62.33-.84ZM253.77,185.57c.63.43,1.36.65,2.19.65s1.57-.21,2.2-.65c.63-.43.94-1.06.94-1.9v-1.65c0-1.07-.31-1.85-.94-2.33-.63-.48-1.36-.73-2.2-.73s-1.57.24-2.19.73c-.63.48-.94,1.26-.94,2.33v1.65c0,.84.31,1.47.94,1.9Z"/>
    <path class="st1" d="M263.74,183.61c.22-.22.5-.33.84-.33h5.21l-2.27-3.92c-.31-.55-.47-1.16-.47-1.84,0-1.02.35-1.88,1.06-2.59.71-.71,1.57-1.06,2.59-1.06h7.37c1.02,0,1.88.35,2.59,1.06s1.06,1.57,1.06,2.59c0,.73-.16,1.34-.47,1.84l-2.27,3.92h5.21v3.13h-19.59c-.34,0-.62-.11-.84-.33-.22-.22-.33-.5-.33-.84v-.78c0-.34.11-.62.33-.84ZM275.32,183.28l3.17-5.49c.05-.1.08-.2.08-.27,0-.34-.17-.51-.51-.51h-7.37c-.13,0-.26.04-.39.12-.13.08-.2.18-.2.31,0,.1.04.21.12.31l3.21,5.53h1.88Z"/>
    <path class="st1" d="M283.33,183.61c.22-.22.5-.33.84-.33h3.13v-18.03h3.13v21.16h-6.27c-.34,0-.62-.11-.84-.33-.22-.22-.33-.5-.33-.84v-.78c0-.34.11-.62.33-.84Z"/>
    <path class="st1" d="M298.28,186.41h-3.13v-21.16h3.13v21.16Z"/>
    <path class="st1" d="M312.39,192.29h-3.13v-11.56c0-1.07.18-1.99.53-2.76s.83-1.4,1.43-1.88c.6-.48,1.29-.84,2.08-1.08.78-.24,1.61-.35,2.47-.35,1.07,0,2.13.16,3.17.49s2,.79,2.86,1.39v9.88h-9.4v5.88ZM318.66,178.34c-.81-.37-1.78-.55-2.9-.55-.89,0-1.67.23-2.35.69-.68.46-1.02,1.21-1.02,2.25v2.55h6.27v-4.94Z"/>
    <path class="st1" d="M329.63,183.28h3.13v3.13h-6.27v-21.16h3.13v18.03Z"/>
    <path class="st1" d="M331.92,183.61c.22-.22.5-.33.84-.33h2.35v-18.03h3.13v13.83l3.41-2.67c1.36-1.07,2.64-1.83,3.84-2.27,1.2-.44,2.3-.67,3.29-.67s1.82.15,2.55.45c.73.3,1.35.71,1.84,1.23.5.52.88,1.14,1.14,1.86.26.72.39,1.5.39,2.33v3.92h2.35v3.13h-24.29c-.34,0-.62-.11-.84-.33-.22-.22-.33-.5-.33-.84v-.78c0-.34.11-.62.33-.84ZM350.85,177.4c-.48-.52-1.18-.78-2.1-.78-.68,0-1.44.17-2.29.51-.85.34-1.81.93-2.88,1.76l-5.33,4.15v.24h13.32v-3.92c0-.78-.24-1.44-.72-1.96ZM347.62,168.82l-2.19,2.19-1.96-1.92,2.23-2.23,1.92,1.96Z"/>
    <path class="st1" d="M356.22,183.61c.22-.22.5-.33.84-.33h4.7v-9.4h3.13v12.54h-7.84c-.34,0-.62-.11-.84-.33-.22-.22-.33-.5-.33-.84v-.78c0-.34.11-.62.33-.84ZM364.86,168.82l-2.19,2.19-1.96-1.92,2.23-2.23,1.92,1.96Z"/>
  </g>
  <g>
    <path class="st1" d="M151.13,87.62c16.31-19.18,7.14-53.24-17.23-60.59C127.25,7.32,106.47-3.19,86.34.86c-7.28,1.46-14.26,5.32-19.53,10.48-.44-4.91-6.16-8.47-10.15-4.59-3.19,3.1.27,9.37-4.57,9.88-5.34.56-3.32-5.48-4.38-8.13-2-5-10.07-4-10.97,1.38-.39,2.36.83,6.52-2.97,6.77-4.82.31-2.91-5.07-3.99-7.99-1.79-4.86-9.33-4.6-10.81.4-.47,1.57-.04,2.47-.09,3.77-.2,4.87-6.08,5.04-6.62,1.13-.33-2.39.33-4.22-1.29-6.49C7.74,2.97.54,5.13.26,10.63c.67,14.99-.85,30.69,0,45.6.58,10.21,4.49,22.78,13.86,28.1-.27,10.31-.34,20.08,6.7,28.31,14.26,16.64,35.51,8.53,52.6,18.25,8.18,4.66,11.43,11.85,18.44,17.13,10.04,7.57,19.52,8.7,31.91,7.84,2.38-.17,5.61-.48,5.68-3.48l.56-15.98c13.58-1.33,21.21-13.79,21.96-26.53.14-2.4-.24-4.67-.3-6.95-.14-5.11-.2-10.19-.54-15.29ZM66.39,17.87c15.95-22.17,53.78-16.87,63.06,8.75h-63.06v-8.75ZM5.83,8.95c3.22-.77,2.38,4.42,2.85,6.34,1.65,6.66,11.58,6.65,13.41.23.69-2.41-.67-7.56,3.2-6.28,1.67.55.96,3.87,1.22,5.45,1.32,8.22,13.64,7.28,14.02-1.03.06-1.22-.83-3.92,1.05-4.48,3.52-1.05,2.4,3.89,2.98,6.07,1.72,6.48,12.18,6.9,13.81.16.5-2.05-.23-4.07.8-5.87,1.07-1.03,3.61-.13,3.61,1.11v22.65H3.89c.19-5.87-.25-11.79-.01-17.66.02-.59.3-1.11.29-1.66-.04-1.98-.69-4.46,1.67-5.02ZM101.37,66.52c4.88,3.1,9.52,7.76,11.69,13.18h-56.95c.31-1.16,1.36-2.33,2.11-3.3,10.65-13.71,27.48-19.82,43.15-9.87ZM49.87,121.34c-13.21-1.12-26.74-6.22-30.99-19.97h31.11l-.13,19.97ZM50,97.76h-7.22v-16.54c0-1.96-5-2.09-5,.56v15.98h-7.78v-16.26c0-.07-.59-1.14-.75-1.27-1.3-1.05-4.25-.56-4.25,1.27v16.26h-6.94v-29.18h31.95v29.18ZM20.56,64.97l13.24-12.2,13.71,12.2h-26.95ZM36.39,49.54c-1.8-1.46-2.18-2.16-4.17-.55-5.8,4.69-11.02,10.66-16.95,15.28-.25.24-1.1,1.5-1.1,1.68v13.48c-.48.12-.55-.2-.84-.42-2.95-2.26-5.42-6.81-6.67-10.28-3.65-10.09-2.62-20.99-2.77-31.55h58.89v29.32l-5.98,5.69-2.91,3.89v-10.14c0-.65-1.19-1.75-1.66-2.23-4.47-4.43-10.94-10.2-15.83-14.17ZM101.12,148.89c-.84-.68-3.71-1.67-3.89-2.64-.07-3.34.09-6.68.01-10.02-.22-9.48.46-20.53-.29-29.72-.78-9.55-9.06-18.7-18.97-13.43-8.87,4.72-7.86,17.06-7.98,25.64-.03,2.11.11,4.17.29,6.26-5.26-2.01-10.54-3.18-16.21-3.38l-.18-38.31h59.73l.23,14.54c-1.68,1.47-3.75,2.39-5.51,3.94-3.2,2.82-7.22,9.3-7.22,13.62v33.49ZM126.67,131.94l-1.33-2.97c-4.98-7.59-14.42-4.54-15.3,4.26-.25,2.46-.31,6.32-.32,8.85-.01,3.11.52,6.21.29,9.32l-4.82-.6-.43-.41-.05-32.21c.65-11.2,9.14-19.03,20.44-18.2.63.05,2.7.23,2.87.74l-1.35,31.22ZM128.34,96.65c-3.76-.8-7.4-.72-11.11.28v-17.09c0-2.01-3.68-6.82-5-8.47h17.22l-1.11,25.29ZM130.71,132.5l2.64-61.14h13.61l1.12,29.86c-.16,2.84.17,5.81,0,8.64-.6,10.01-6.56,21.25-17.37,22.64ZM146.4,60.52c-.09.27.28.6.28.69v6.53h-13.06s.28-7.23.28-7.23h12.5ZM134.8,54.89c2.96-7.68,9.86-4.79,11.05,2.02h-11.25c-.62-.35-.02-1.43.2-2.02ZM142.37,46.63c-.23-1.44.32-7.21-2.21-6.97-2.35.23-2.19,5.3-2.14,6.92-8.62,3.21-7.81,13.29-8.29,20.89l-2.22.28v-20.7c0-1.59-.69-3.45-1.67-4.72-2.74-3.53-7.79-3.56-10.39.15-.23.33-1.27,2.4-1.27,2.62v22.23l-.4.35c-2.07-.57-4.81,1.19-6.21-1.24l-.06-20.5c-.67-6.7-9.5-8.64-12.55-2.55-.13.26-.78,1.89-.78,1.99v13.48l-6.11-.83v-10.7c0-1.23-.72-3.62-1.43-4.68-3.48-5.16-11.41-3.09-12.15,3.04-.24,2.02.4,13.44-.06,13.97l-8.02,3.65V30.51h65.42c3.04.38,7.67,3.02,10.12,4.89,8.74,6.67,14.94,20.7,13.36,31.66-.04.28-.1.53-.41.62l-4.32.07c-.33-7.77.12-17.38-8.2-21.12ZM150.57,71.36h4.17c-.62,3.5-1.83,6.88-3.47,10.01-.63.11-.38-.28-.41-.69-.25-3.08.25-6.24-.28-9.31Z"/>
    <path class="st1" d="M141.41,87.63c.83-1.32.7-8.29-.36-9.25-.66-.6-1.92-.39-2.4.37-.46.72-.69,6.06-.55,7.16.24,1.96,2.18,3.53,3.32,1.71Z"/>
    <path class="st0" d="M45.6,116.44v-10.7h-19.83c4.7,6.74,13.04,9.55,19.83,10.7Z"/>
    <path class="st0" d="M58.39,28.97v-6.4c-1.88,1.34-4.22,2.12-6.79,2.12-3.72,0-7.02-1.57-9.17-4.22-2.12,2.63-5.39,4.27-9.12,4.27s-6.9-1.59-8.93-4.27c-2.11,2.64-5.38,4.25-9.02,4.25-2.8,0-5.33-.93-7.26-2.53.01,1.72.13,6.79.13,6.79h50.16Z"/>
    <path class="st0" d="M58.05,64.97l.34-.33v-23.09H8.27v1.04c-.12,7.99-.22,15.58,1.74,22.53.46-1.48,1.73-3.57,2.58-4.22,3.18-2.48,6.23-5.42,9.25-8.34,2.5-2.4,4.99-4.8,7.67-7.06.75-.59,3.49-1.77,4.45-1.77,2.15,0,3.6,1.15,5.28,2.5,4.85,3.95,11.46,9.9,16.16,14.38.87.88,2.24,2.5,2.66,4.37Z"/>
    <polygon class="st0" points="38.35 61.61 33.89 57.66 29.52 61.61 38.35 61.61"/>
    <path class="st0" d="M31.74,76.53c1.21.8,1.96,1.22,1.96,2.66.07.12.14.24.19.36.97-2.46,3.48-4.13,6.58-4.13,2.11,0,3.94.78,5.14,2.04v-4.47h-23.2v4.36c1.25-1.24,3.1-1.99,5.23-1.99,1.08,0,2.67.2,4.11,1.16Z"/>
    <path class="st0" d="M143.41,91.63c-1.03.68-2.26,1.2-3.12,1.2-1.25,0-2.44-.42-3.45-1.14l-1.6,34.58c5.18-3.26,8.18-10.1,8.6-16.41l-.04-2.74c-.05-2.1-.1-4.22.05-5.74l-.43-9.74Z"/>
    <path class="st0" d="M121.51,91.8c.64-.04,2.5-.06,2.81-.05l.68-15.94h-4.63c.69,1.43,1.14,2.85,1.14,4.12v11.87Z"/>
    <path class="st0" d="M109.14,118.09v6.44c2.29-2.65,5.5-4.25,9.11-4.25,1.58,0,3.11.32,4.56.95l.72-17.06c-8.02.17-13.91,5.94-14.39,13.91Z"/>
    <path class="st0" d="M109.55,95.63l-.12-7.9h-21.8c7.04,1.91,11.94,8.89,13.36,16.23,1.45-2.22,3.06-4.14,4.44-5.41,1.19-1.03,2.54-1.91,3.86-2.75l.25-.17Z"/>
    <path class="st0" d="M58.37,117.56c2.37.29,4.75.75,7.19,1.39,0-.1.03-3.39.03-3.39.06-8.87.15-21.04,10.25-26.22,1.33-.72,2.68-1.26,4.02-1.61h-21.66l.17,29.83Z"/>
    <path class="st0" d="M99.01,70.13c-4.43-2.82-9.05-4.25-13.79-4.25-7.22,0-14.46,3.41-20.38,9.48h40.42c-1.74-1.98-3.88-3.78-6.25-5.23Z"/>
    <path class="st0" d="M70.76,34.82v7.84c1.6-4.34,5.7-7.3,10.48-7.3,3.63,0,6.89,1.77,9.07,5.04.2.35.43.79.67,1.3.07-.14.14-.25.18-.36,1.9-3.79,5.47-6.06,9.57-6.06,4.43,0,8.27,2.64,10.04,6.7.29-.56.66-1.23,1.12-2.08,2.06-2.92,5.22-4.61,8.66-4.61s6.55,1.63,8.66,4.38c1.06,1.31,2.13,3.4,2.53,5.54.59-.51,1.24-1,1.96-1.43.16-2.22.72-5.09,2.64-6.89-1.82-1.09-3.67-1.95-4.44-2.09h-61.15Z"/>
    <path class="st0" d="M94.92,8.31c-9.87,0-18.6,4.01-24.16,11.04v2.89h51.77c-6.33-9.57-17.8-13.93-27.6-13.93Z"/>
  </g>
  <rect class="st0" x="135.36" y="62.52" width="9.75" height="3.65"/>
</svg>